<svg width="26" height="22" viewBox="0 0 26 22" fill="none" xmlns="http://www.w3.org/2000/svg">
<path fill-rule="evenodd" clip-rule="evenodd" d="M7.02457 2.5C5.94457 2.5 4.93207 2.9175 4.17457 3.67625C2.60207 5.25125 2.60207 7.815 4.17582 9.3925L12.9996 18.2313L21.8246 9.3925C23.3983 7.815 23.3983 5.25125 21.8246 3.67625C20.3096 2.1575 17.6396 2.16 16.1246 3.67625L13.8846 5.92C13.4146 6.39125 12.5846 6.39125 12.1146 5.92L9.87457 3.675C9.11707 2.9175 8.10582 2.5 7.02457 2.5ZM12.9996 21.25C12.6683 21.25 12.3496 21.1187 12.1158 20.8825L2.40582 11.1575C-0.13918 8.6075 -0.13918 4.45875 2.40582 1.90875C3.63582 0.67875 5.27582 0 7.02457 0C8.77332 0 10.4146 0.67875 11.6433 1.90875L12.9996 3.2675L14.3558 1.91C15.5858 0.67875 17.2258 0 18.9758 0C20.7233 0 22.3646 0.67875 23.5933 1.90875C26.1396 4.45875 26.1396 8.6075 23.5946 11.1575L13.8846 20.8838C13.6496 21.1188 13.3321 21.25 12.9996 21.25Z" fill="#231F20"/>
</svg>
